<svg width="24px" height="24px" fill="none" version="1.1" viewBox="0 0 24 24" xmlns="http://www.w3.org/2000/svg">
 <g fill="#000">
  <path d="m7.5016 0h2.5781v1.0781h-1.5v1.0781h1.5v1.0781h-2.5781v-3.2344z" style="fill:#e6e6e6"/>
  <path d="m10.595 0h2.5782v0.9375h-1.5v0.1875h1.5v2.1562h-2.5782v-0.98437h1.5v-0.1875h-1.5v-2.1094z" style="fill:#e6e6e6"/>
  <path d="m13.689 0h2.5781v0.9375h-1.5v0.1875h1.5v2.1562h-2.5781v-0.98437h1.5v-0.1875h-1.5v-2.1094z" style="fill:#e6e6e6"/>
  <path d="m11.991 24-6.9438-1.9277-2.0474-17.356h18l-2.0459 17.353-6.9629 1.9304zm-4.9438-11.427 0.19078 2.1286h7.3772l-0.2471 2.7606-2.3741 0.6408-0.0021 7e-4 -2.3706-0.6401-0.15155-1.6977h-2.1368l0.29822 3.3423 4.3603 1.2104 4.3664-1.2105 0.5322-5.9635 0.052-0.5716 0.3843-4.3084h-10.662l0.1935 2.1286h8.136l-0.1937 2.1798h-7.7525z" clip-rule="evenodd" fill-rule="evenodd" style="fill:#e6e6e6"/>
 </g>
</svg>
