<svg width="24px" height="24px" fill="none" version="1.1" viewBox="0 0 24 24" xmlns="http://www.w3.org/2000/svg">
 <g clip-path="url(#clip0)" fill="#000" style="fill:#e6e6e6">
  <path d="M5.08057 0H6.1623V1.06875H7.15183V0H8.23361V3.23644H7.15188V2.15269H6.16235V3.23644H5.08061L5.08057 0Z" style="fill:#e6e6e6"/>
  <path d="M9.65622 1.07325H8.7039V0H11.6908V1.07325H10.738V3.23644H9.65626L9.65622 1.07325Z" style="fill:#e6e6e6"/>
  <path d="M12.1648 0H13.2928L13.9866 1.13719L14.6797 0H15.8081V3.23644H14.7308V1.63228L13.9866 2.78302H13.968L13.2232 1.63228V3.23644H12.1648V0Z" style="fill:#e6e6e6"/>
  <path d="M16.3465 0H17.4286V2.16666H18.9498V3.23644H16.3465V0Z" style="fill:#e6e6e6"/>
  <path d="m5.0459 22.072-2.0459-17.356h18l-2.0473 17.353-6.963 1.9303-6.9438-1.9276zm4.1375-9.4997-0.19453-2.1798h8.1454l0.1906-2.1286h-10.662l0.57412 6.437h7.3771l-0.247 2.7606-2.3741 0.6408-0.0017 7e-4 -2.3706-0.6401-0.15155-1.6977h-2.1368l0.29822 3.3423 4.3604 1.2104 4.3659-1.2105 0.5322-5.9635 0.0519-0.5716h-7.7572z" clip-rule="evenodd" fill-rule="evenodd" style="fill:#e6e6e6"/>
 </g>
 <defs>
  <clipPath id="clip0">
   <rect width="24" height="24" fill="#fff"/>
  </clipPath>
 </defs>
</svg>
