<svg width="162" height="162" version="1.1" viewBox="0 0 162 162" xmlns="http://www.w3.org/2000/svg">
 <g transform="scale(.32653)" style="fill:#fff">
  <path d="m245 0c-135.31 0-245 109.69-245 245 0 135.31 109.69 245 245 245s245-109.69 245-245c0-135.31-109.69-245-245-245zm0 459.38c-118.21 0-214.38-96.169-214.38-214.38 0-118.21 96.169-214.38 214.38-214.38 118.21 0 214.38 96.168 214.38 214.38 0 118.21-96.168 214.38-214.38 214.38z" style="fill:#fff"/>
  <path d="m99.576 348.48h291.16v-212.07h-291.16zm216.81-116.14 43.729-27.361v83.02zm-26.112 16.338 54.35 69.178h-198.58l54.152-68.912 45.004 27.939zm-160.07 39.765v-82.949l43.809 27.198zm229.91-121.41v1.822l-114.98 71.929-114.93-71.337v-2.414z" style="fill:#fff"/>
 </g>
</svg>
