<svg width="24px" height="24px" fill="none" version="1.1" viewBox="0 0 24 24" xmlns="http://www.w3.org/2000/svg">
 <path d="m12 23.956c-0.3416 0-0.6605-0.0881-0.9565-0.2421l-3.029-1.7386c-0.45548-0.2421-0.22774-0.3301-0.09109-0.3742 0.6149-0.198 0.72877-0.242 1.3665-0.5942 0.06832-0.044 0.15942-0.022 0.22774 0.022l2.323 1.3425c0.0911 0.044 0.2049 0.044 0.2733 0l9.0869-5.0838c0.0911-0.044 0.1367-0.132 0.1367-0.2421v-10.146c0-0.11004-0.0456-0.19807-0.1367-0.24209l-9.0869-5.0618c-0.0911-0.04401-0.205-0.04401-0.2733 0l-9.087 5.0618c-0.09109 0.04402-0.13664 0.15406-0.13664 0.24209v10.146c0 0.0881 0.04555 0.1981 0.13664 0.2421l2.4824 1.3865c1.3437 0.6602 2.1863-0.11 2.1863-0.8803v-10.014c0-0.13205 0.11387-0.26409 0.27329-0.26409h1.1615c0.13665 0 0.27329 0.11004 0.27329 0.26409v10.014c0 1.7386-0.97929 2.751-2.6874 2.751-0.52381 0-0.93374 0-2.0952-0.5502l-2.3913-1.3205c-0.59213-0.3301-0.95652-0.9463-0.95652-1.6066v-10.146c0-0.66024 0.36439-1.2764 0.95652-1.6066l9.087-5.0838c0.5693-0.30811 1.3437-0.30811 1.913 0l9.087 5.0838c0.5921 0.33012 0.9565 0.94633 0.9565 1.6066v10.146c0 0.6603-0.3644 1.2765-0.9565 1.6066l-9.087 5.0838c-0.296 0.132-0.6377 0.1981-0.9565 0.1981zm2.8012-6.9765c-3.9855 0-4.8053-1.7606-4.8053-3.2571 0-0.1321 0.11384-0.2641 0.27334-0.2641h1.1842c0.1367 0 0.2505 0.088 0.2505 0.22 0.1822 1.1664 0.706 1.7387 3.1201 1.7387 1.9131 0 2.7329-0.4182 2.7329-1.4085 0-0.5722-0.2277-0.9904-3.2111-1.2765-2.4824-0.2421-4.0311-0.7703-4.0311-2.6849 0-1.7827 1.5487-2.839 4.1449-2.839 2.9151 0 4.3499 0.96834 4.5321 3.081 0 0.0661-0.0228 0.1321-0.0683 0.1981-0.0456 0.044-0.1139 0.088-0.1822 0.088h-1.1843c-0.1138 0-0.2277-0.088-0.2505-0.198-0.2733-1.2105-0.9793-1.6066-2.8468-1.6066-2.0952 0-2.3457 0.70425-2.3457 1.2324 0 0.6383 0.296 0.8363 3.1201 1.1885 2.8012 0.3521 4.1221 0.8583 4.1221 2.7509-0.0228 1.9367-1.6625 3.0371-4.5549 3.0371z" fill="#000" style="fill:#e6e6e6"/>
</svg>
