<?xml version="1.0" encoding="UTF-8"?>
<!-- Uploaded to SVGRepo https://www.svgrepo.com -->
<svg id="_x31_" version="1.2" viewBox="-63 65 128 128" xmlns="http://www.w3.org/2000/svg">
 <path d="m38.7 87.6c-3.6 5.1-10.6 6.3-15.7 2.8s-6.3-10.6-2.8-15.7c3.6-5.1 10.6-6.3 15.7-2.8s6.4 10.6 2.8 15.7zm25.4 12.5-13.2 19c-1.5 2.3-4.6 2.8-6.9 1.3l-19-13.2-20.3 30.1 17.3 12.1c1.5 1 2.7 2.7 3 4.5l4.9 27.7c0.6 3.8-2 7.5-5.8 8.2-3.8 0.6-7.5-2-8.2-5.8l-4.4-24.9-21.8-15.5s-11.5 16.6-12.3 17.6-1.5 2.4-2.8 3.1c-1.7 1-3.7 1.1-5.4 0.7l-27.2-7.3c-3.7-1-5.9-4.8-4.9-8.6 1-3.7 4.8-5.9 8.6-4.9l22.3 5.9 35.6-51.7h-13.7l-11.7 16.8c-1.5 2.3-4.6 2.8-6.9 1.3s-2.8-4.6-1.3-6.9l13.2-18.9c1-1.5 2.7-2.3 4.4-2.1h22.8c3.4 0 6.8 1 9.7 3.1l7.3 5.2 18 12.7 10.6-15c1.5-2.3 4.6-2.8 6.9-1.3s2.8 4.7 1.2 6.8z" fill="#fff"/>
</svg>
