<?xml version="1.0" encoding="UTF-8"?>
<svg width="25" height="700" version="1.1" viewBox="0 0 25 700" xmlns="http://www.w3.org/2000/svg">
 <rect x="10" y="70" width="5" height="547.5" fill="#666"/>
 <text transform="translate(-2.5004)" fill="#000000" font-family="sans-serif" font-size="40px" style="line-height:1.25;shape-inside:url(#rect6135);white-space:pre" xml:space="preserve"/>
 <text x="-5.0547533e-06" y="59.074497" fill="#ffffff" font-family="sans-serif" font-size="9.0748px" stroke-width=".85074" style="line-height:1.25" xml:space="preserve"><tspan x="-5.0547533e-06" y="59.074497" fill="#ffffff" font-family="'Computer Speak v0.3'" font-size="9.0748px" stroke-width=".72375">start</tspan></text>
 <g transform="matrix(.076072 0 0 .055556 -4.6161 625)" fill="#fff">
  <g fill="#fff">
   <path d="m87.945 75.913c-1.877-7.41-9.408-11.893-16.818-10.018-7.413 1.879-11.897 9.409-10.019 16.821l90.439 356.84c1.589 6.271 7.224 10.446 13.409 10.446 1.127 0 2.271-0.139 3.413-0.428 7.409-1.877 11.895-9.409 10.017-16.819z"/>
   <path d="m388.98 176.42c-14.739-54.423-29.492-108.84-44.234-163.26-1.598-5.891-4.399-12.21-14.929-12.842-82.888-6.003-137.31 76.542-220.2 70.538-6.541-0.806-10.745 2.6-9.148 8.491 14.743 54.422 29.372 108.88 44.233 163.27 2.385 8.729 8.388 12.035 14.931 12.842 82.887 6.004 137.32-76.541 220.2-70.537 6.54 0.804 10.742-2.601 9.145-8.493zm-65.046-155.56c4.066 15.015 8.138 30.029 12.204 45.044-17.436 0.574-32.825 4.092-49.132 10.203-4.065-15.015-8.137-30.03-12.202-45.044 16.305-6.109 31.694-9.63 49.13-10.203zm-170.8 168.34c-4.627-17.059-9.246-34.122-13.868-51.182 18.328-0.531 34.591-4.503 51.602-11.227-4.07-15.015-8.138-30.03-12.204-45.045 16.629-7.433 32.314-16.332 48.022-25.523 4.066 15.014 8.138 30.029 12.205 45.044-15.709 9.19-31.395 18.092-48.023 25.524 4.623 17.06 9.244 34.122 13.866 51.182-17.012 6.723-33.273 10.695-51.6 11.227zm63.984 34.477c-4.129-15.234-8.256-30.47-12.384-45.706 16.513-7.377 32.087-16.201 47.683-25.327 4.128 15.236 8.256 30.471 12.383 45.707-15.594 9.127-31.17 17.949-47.682 25.326zm35.636-71.229c-4.619-17.061-9.242-34.122-13.863-51.183 15.706-9.17 31.403-17.945 48.119-25.157 4.624 17.06 9.246 34.121 13.867 51.181-16.713 7.214-32.415 15.988-48.123 25.159zm60.795 20.431c-4.129-15.234-8.256-30.47-12.385-45.706 16.211-6.045 31.521-9.521 48.843-10.086 4.129 15.236 8.257 30.471 12.386 45.705-17.323 0.566-32.635 4.041-48.844 10.087z"/>
  </g>
 </g>
</svg>
